<mxfile host="Electron" modified="2023-12-26T23:14:26.053Z" agent="Mozilla/5.0 (Macintosh; Intel Mac OS X 10_15_7) AppleWebKit/537.36 (KHTML, like Gecko) draw.io/22.1.11 Chrome/114.0.5735.289 Electron/25.9.8 Safari/537.36" etag="HuDz0XAx7VohGc5LonQn" version="22.1.11" type="device">
  <diagram id="nWWDfMbgM3d9EnMY9uMK" name="Page-1">
    <mxGraphModel dx="1714" dy="2765" grid="1" gridSize="10" guides="1" tooltips="1" connect="1" arrows="1" fold="1" page="1" pageScale="1" pageWidth="980" pageHeight="1390" math="0" shadow="0">
      <root>
        <mxCell id="0" />
        <mxCell id="1" parent="0" />
        <mxCell id="oZba0OZH8DgDNXhv-ab9-1" value="&lt;b&gt;Important Notes from the spec:&lt;/b&gt;&lt;br&gt;&lt;ul&gt;&lt;li&gt;Unix IO only, can still use stdio for error messages.&lt;/li&gt;&lt;li&gt;for unix io:&amp;nbsp;https://www.youtube.com/watch?v=dP3N8g7h8gY&lt;/li&gt;&lt;li&gt;For project, we will use network byte order. This is relevant for encoding the 4 byte unsigned int that we have in our header&#39;s frequency portion. use ntohl and htonl.&lt;/li&gt;&lt;li&gt;Understanding figure 3: the body is the concatination of bits represented as a byte&lt;/li&gt;&lt;/ul&gt;" style="text;html=1;align=left;verticalAlign=middle;resizable=0;points=[];autosize=1;strokeColor=none;fillColor=none;" parent="1" vertex="1">
          <mxGeometry x="25" y="60" width="920" height="100" as="geometry" />
        </mxCell>
        <mxCell id="oZba0OZH8DgDNXhv-ab9-2" value="&lt;b&gt;hencode:&lt;/b&gt;" style="text;html=1;align=center;verticalAlign=middle;resizable=0;points=[];autosize=1;strokeColor=none;fillColor=none;" parent="1" vertex="1">
          <mxGeometry x="70" y="270" width="70" height="20" as="geometry" />
        </mxCell>
        <mxCell id="oZba0OZH8DgDNXhv-ab9-6" style="edgeStyle=orthogonalEdgeStyle;rounded=0;orthogonalLoop=1;jettySize=auto;html=1;" parent="1" source="oZba0OZH8DgDNXhv-ab9-5" edge="1">
          <mxGeometry relative="1" as="geometry">
            <mxPoint x="225" y="570" as="targetPoint" />
          </mxGeometry>
        </mxCell>
        <mxCell id="oZba0OZH8DgDNXhv-ab9-8" style="edgeStyle=orthogonalEdgeStyle;rounded=0;orthogonalLoop=1;jettySize=auto;html=1;" parent="1" source="oZba0OZH8DgDNXhv-ab9-5" edge="1">
          <mxGeometry relative="1" as="geometry">
            <mxPoint x="380" y="450" as="targetPoint" />
          </mxGeometry>
        </mxCell>
        <mxCell id="oZba0OZH8DgDNXhv-ab9-5" value="Were we given a command line arg for the input?" style="rhombus;whiteSpace=wrap;html=1;" parent="1" vertex="1">
          <mxGeometry x="160" y="390" width="130" height="120" as="geometry" />
        </mxCell>
        <mxCell id="oZba0OZH8DgDNXhv-ab9-7" value="YES" style="text;html=1;align=center;verticalAlign=middle;resizable=0;points=[];autosize=1;strokeColor=none;fillColor=none;" parent="1" vertex="1">
          <mxGeometry x="170" y="520" width="40" height="20" as="geometry" />
        </mxCell>
        <mxCell id="oZba0OZH8DgDNXhv-ab9-9" value="NO" style="text;html=1;align=center;verticalAlign=middle;resizable=0;points=[];autosize=1;strokeColor=none;fillColor=none;" parent="1" vertex="1">
          <mxGeometry x="310" y="430" width="30" height="20" as="geometry" />
        </mxCell>
        <mxCell id="oZba0OZH8DgDNXhv-ab9-15" value="Error, no file to encode." style="ellipse;whiteSpace=wrap;html=1;" parent="1" vertex="1">
          <mxGeometry x="380" y="420" width="120" height="60" as="geometry" />
        </mxCell>
        <mxCell id="oZba0OZH8DgDNXhv-ab9-18" style="edgeStyle=orthogonalEdgeStyle;rounded=0;orthogonalLoop=1;jettySize=auto;html=1;" parent="1" source="oZba0OZH8DgDNXhv-ab9-17" edge="1">
          <mxGeometry relative="1" as="geometry">
            <mxPoint x="400" y="630" as="targetPoint" />
          </mxGeometry>
        </mxCell>
        <mxCell id="oZba0OZH8DgDNXhv-ab9-22" value="" style="edgeStyle=orthogonalEdgeStyle;rounded=0;orthogonalLoop=1;jettySize=auto;html=1;" parent="1" source="oZba0OZH8DgDNXhv-ab9-17" target="oZba0OZH8DgDNXhv-ab9-21" edge="1">
          <mxGeometry relative="1" as="geometry" />
        </mxCell>
        <mxCell id="oZba0OZH8DgDNXhv-ab9-17" value="Were we given a output file?" style="rhombus;whiteSpace=wrap;html=1;" parent="1" vertex="1">
          <mxGeometry x="170" y="565" width="110" height="130" as="geometry" />
        </mxCell>
        <mxCell id="oZba0OZH8DgDNXhv-ab9-19" value="Use stdout" style="whiteSpace=wrap;html=1;" parent="1" vertex="1">
          <mxGeometry x="400" y="600" width="120" height="60" as="geometry" />
        </mxCell>
        <mxCell id="oZba0OZH8DgDNXhv-ab9-20" value="NO" style="text;html=1;align=center;verticalAlign=middle;resizable=0;points=[];autosize=1;strokeColor=none;fillColor=none;" parent="1" vertex="1">
          <mxGeometry x="325" y="610" width="30" height="20" as="geometry" />
        </mxCell>
        <mxCell id="oZba0OZH8DgDNXhv-ab9-24" value="" style="edgeStyle=orthogonalEdgeStyle;rounded=0;orthogonalLoop=1;jettySize=auto;html=1;" parent="1" source="oZba0OZH8DgDNXhv-ab9-21" edge="1">
          <mxGeometry relative="1" as="geometry">
            <mxPoint x="228" y="950" as="targetPoint" />
          </mxGeometry>
        </mxCell>
        <mxCell id="oZba0OZH8DgDNXhv-ab9-21" value="Save the output file so we can write to it later." style="whiteSpace=wrap;html=1;" parent="1" vertex="1">
          <mxGeometry x="165" y="810" width="120" height="60" as="geometry" />
        </mxCell>
        <mxCell id="oZba0OZH8DgDNXhv-ab9-26" value="" style="edgeStyle=orthogonalEdgeStyle;rounded=0;orthogonalLoop=1;jettySize=auto;html=1;" parent="1" source="oZba0OZH8DgDNXhv-ab9-23" edge="1">
          <mxGeometry relative="1" as="geometry">
            <mxPoint x="227.5" y="1260" as="targetPoint" />
          </mxGeometry>
        </mxCell>
        <mxCell id="oZba0OZH8DgDNXhv-ab9-23" value="Read the input file and generate my huffman tree using my lab 3 stuff." style="whiteSpace=wrap;html=1;" parent="1" vertex="1">
          <mxGeometry x="167.5" y="1120" width="120" height="60" as="geometry" />
        </mxCell>
        <mxCell id="oZba0OZH8DgDNXhv-ab9-40" style="edgeStyle=orthogonalEdgeStyle;rounded=0;orthogonalLoop=1;jettySize=auto;html=1;entryX=0.5;entryY=0;entryDx=0;entryDy=0;" parent="1" source="oZba0OZH8DgDNXhv-ab9-27" target="oZba0OZH8DgDNXhv-ab9-39" edge="1">
          <mxGeometry relative="1" as="geometry" />
        </mxCell>
        <mxCell id="oZba0OZH8DgDNXhv-ab9-27" value="Keep all the codes near their coresponding characters in the lookup table." style="whiteSpace=wrap;html=1;" parent="1" vertex="1">
          <mxGeometry x="160" y="1260" width="135" height="80" as="geometry" />
        </mxCell>
        <mxCell id="oZba0OZH8DgDNXhv-ab9-31" value="" style="edgeStyle=orthogonalEdgeStyle;rounded=0;orthogonalLoop=1;jettySize=auto;html=1;" parent="1" source="oZba0OZH8DgDNXhv-ab9-28" target="oZba0OZH8DgDNXhv-ab9-30" edge="1">
          <mxGeometry relative="1" as="geometry" />
        </mxCell>
        <mxCell id="oZba0OZH8DgDNXhv-ab9-28" value="Using the lookup table, re-read the input file and translate each char to its appropriate code" style="whiteSpace=wrap;html=1;" parent="1" vertex="1">
          <mxGeometry x="167.5" y="1540" width="135" height="90" as="geometry" />
        </mxCell>
        <mxCell id="oZba0OZH8DgDNXhv-ab9-30" value="Write each code to the output file." style="whiteSpace=wrap;html=1;" parent="1" vertex="1">
          <mxGeometry x="175" y="1725" width="120" height="60" as="geometry" />
        </mxCell>
        <mxCell id="oZba0OZH8DgDNXhv-ab9-34" value="" style="edgeStyle=orthogonalEdgeStyle;rounded=0;orthogonalLoop=1;jettySize=auto;html=1;" parent="1" source="oZba0OZH8DgDNXhv-ab9-32" edge="1">
          <mxGeometry relative="1" as="geometry">
            <mxPoint x="357.5" y="1000" as="targetPoint" />
          </mxGeometry>
        </mxCell>
        <mxCell id="oZba0OZH8DgDNXhv-ab9-36" style="edgeStyle=orthogonalEdgeStyle;rounded=0;orthogonalLoop=1;jettySize=auto;html=1;entryX=0.5;entryY=0;entryDx=0;entryDy=0;" parent="1" source="oZba0OZH8DgDNXhv-ab9-32" target="oZba0OZH8DgDNXhv-ab9-23" edge="1">
          <mxGeometry relative="1" as="geometry" />
        </mxCell>
        <mxCell id="oZba0OZH8DgDNXhv-ab9-32" value="Is the input file empty?" style="rhombus;whiteSpace=wrap;html=1;" parent="1" vertex="1">
          <mxGeometry x="172.5" y="950" width="110" height="100" as="geometry" />
        </mxCell>
        <mxCell id="oZba0OZH8DgDNXhv-ab9-35" value="YES" style="text;html=1;align=center;verticalAlign=middle;resizable=0;points=[];autosize=1;strokeColor=none;fillColor=none;" parent="1" vertex="1">
          <mxGeometry x="290" y="980" width="40" height="20" as="geometry" />
        </mxCell>
        <mxCell id="oZba0OZH8DgDNXhv-ab9-37" value="NO" style="text;html=1;align=center;verticalAlign=middle;resizable=0;points=[];autosize=1;strokeColor=none;fillColor=none;" parent="1" vertex="1">
          <mxGeometry x="190" y="1070" width="30" height="20" as="geometry" />
        </mxCell>
        <mxCell id="oZba0OZH8DgDNXhv-ab9-38" value="Return the empty file." style="ellipse;whiteSpace=wrap;html=1;" parent="1" vertex="1">
          <mxGeometry x="360" y="970" width="120" height="60" as="geometry" />
        </mxCell>
        <mxCell id="oZba0OZH8DgDNXhv-ab9-41" style="edgeStyle=orthogonalEdgeStyle;rounded=0;orthogonalLoop=1;jettySize=auto;html=1;entryX=0.5;entryY=0;entryDx=0;entryDy=0;" parent="1" source="oZba0OZH8DgDNXhv-ab9-39" target="oZba0OZH8DgDNXhv-ab9-28" edge="1">
          <mxGeometry relative="1" as="geometry">
            <mxPoint x="240" y="1530" as="targetPoint" />
          </mxGeometry>
        </mxCell>
        <mxCell id="oZba0OZH8DgDNXhv-ab9-39" value="Generate the header." style="whiteSpace=wrap;html=1;" parent="1" vertex="1">
          <mxGeometry x="180" y="1420" width="120" height="60" as="geometry" />
        </mxCell>
        <mxCell id="NsLznJ0KzeJEmcW6jJ__-1" value="&lt;ul&gt;&lt;li&gt;Need to adapt my make table function to use unix io&lt;/li&gt;&lt;/ul&gt;" style="text;html=1;align=center;verticalAlign=middle;resizable=0;points=[];autosize=1;strokeColor=none;fillColor=none;" parent="1" vertex="1">
          <mxGeometry x="270" y="1130" width="330" height="40" as="geometry" />
        </mxCell>
        <mxCell id="NsLznJ0KzeJEmcW6jJ__-2" value="Start here:" style="text;html=1;align=center;verticalAlign=middle;resizable=0;points=[];autosize=1;strokeColor=none;fillColor=none;" parent="1" vertex="1">
          <mxGeometry x="65" y="1390" width="70" height="20" as="geometry" />
        </mxCell>
        <mxCell id="NsLznJ0KzeJEmcW6jJ__-3" value="given the lookup table, compress the file:&lt;br&gt;" style="text;html=1;align=center;verticalAlign=middle;resizable=0;points=[];autosize=1;strokeColor=none;fillColor=none;" parent="1" vertex="1">
          <mxGeometry x="390" y="1850" width="230" height="20" as="geometry" />
        </mxCell>
        <mxCell id="NsLznJ0KzeJEmcW6jJ__-10" value="Make Header:" style="text;html=1;align=center;verticalAlign=middle;resizable=0;points=[];autosize=1;strokeColor=none;fillColor=none;" parent="1" vertex="1">
          <mxGeometry x="525" y="1880" width="90" height="20" as="geometry" />
        </mxCell>
        <mxCell id="NsLznJ0KzeJEmcW6jJ__-13" value="" style="edgeStyle=orthogonalEdgeStyle;rounded=0;orthogonalLoop=1;jettySize=auto;html=1;" parent="1" source="NsLznJ0KzeJEmcW6jJ__-11" edge="1">
          <mxGeometry relative="1" as="geometry">
            <mxPoint x="630" y="2060" as="targetPoint" />
          </mxGeometry>
        </mxCell>
        <mxCell id="NsLznJ0KzeJEmcW6jJ__-11" value="get number of unique characters in the freq table." style="whiteSpace=wrap;html=1;" parent="1" vertex="1">
          <mxGeometry x="570" y="1920" width="120" height="60" as="geometry" />
        </mxCell>
        <mxCell id="NsLznJ0KzeJEmcW6jJ__-16" value="" style="edgeStyle=orthogonalEdgeStyle;rounded=0;orthogonalLoop=1;jettySize=auto;html=1;" parent="1" source="NsLznJ0KzeJEmcW6jJ__-14" target="NsLznJ0KzeJEmcW6jJ__-15" edge="1">
          <mxGeometry relative="1" as="geometry" />
        </mxCell>
        <mxCell id="NsLznJ0KzeJEmcW6jJ__-14" value="Write out the freq as a one byte int" style="shape=parallelogram;perimeter=parallelogramPerimeter;whiteSpace=wrap;html=1;fixedSize=1;" parent="1" vertex="1">
          <mxGeometry x="570" y="2060" width="140" height="70" as="geometry" />
        </mxCell>
        <mxCell id="NsLznJ0KzeJEmcW6jJ__-19" value="" style="edgeStyle=orthogonalEdgeStyle;rounded=0;orthogonalLoop=1;jettySize=auto;html=1;" parent="1" source="NsLznJ0KzeJEmcW6jJ__-15" edge="1">
          <mxGeometry relative="1" as="geometry">
            <mxPoint x="640" y="2360" as="targetPoint" />
          </mxGeometry>
        </mxCell>
        <mxCell id="NsLznJ0KzeJEmcW6jJ__-15" value="make a copy of my lookup table and order it in acending order based on char" style="whiteSpace=wrap;html=1;" parent="1" vertex="1">
          <mxGeometry x="580" y="2215" width="120" height="60" as="geometry" />
        </mxCell>
        <mxCell id="NsLznJ0KzeJEmcW6jJ__-26" style="edgeStyle=orthogonalEdgeStyle;rounded=0;orthogonalLoop=1;jettySize=auto;html=1;" parent="1" source="NsLznJ0KzeJEmcW6jJ__-18" edge="1">
          <mxGeometry relative="1" as="geometry">
            <mxPoint x="640" y="2310" as="targetPoint" />
            <Array as="points">
              <mxPoint x="945" y="2400" />
              <mxPoint x="945" y="2290" />
              <mxPoint x="930" y="2290" />
            </Array>
          </mxGeometry>
        </mxCell>
        <mxCell id="NsLznJ0KzeJEmcW6jJ__-18" value="write the char as a byte and the freq as a 4 byte int." style="whiteSpace=wrap;html=1;" parent="1" vertex="1">
          <mxGeometry x="775" y="2357.5" width="150" height="85" as="geometry" />
        </mxCell>
        <mxCell id="NsLznJ0KzeJEmcW6jJ__-22" style="edgeStyle=orthogonalEdgeStyle;rounded=0;orthogonalLoop=1;jettySize=auto;html=1;entryX=0;entryY=0.5;entryDx=0;entryDy=0;" parent="1" source="NsLznJ0KzeJEmcW6jJ__-21" target="NsLznJ0KzeJEmcW6jJ__-18" edge="1">
          <mxGeometry relative="1" as="geometry" />
        </mxCell>
        <mxCell id="NsLznJ0KzeJEmcW6jJ__-24" style="edgeStyle=orthogonalEdgeStyle;rounded=0;orthogonalLoop=1;jettySize=auto;html=1;entryX=0;entryY=0.5;entryDx=0;entryDy=0;" parent="1" source="NsLznJ0KzeJEmcW6jJ__-21" target="NsLznJ0KzeJEmcW6jJ__-48" edge="1">
          <mxGeometry relative="1" as="geometry">
            <mxPoint x="1060" y="1870" as="targetPoint" />
            <Array as="points">
              <mxPoint x="640" y="2510" />
              <mxPoint x="990" y="2510" />
              <mxPoint x="990" y="1870" />
              <mxPoint x="1100" y="1870" />
            </Array>
          </mxGeometry>
        </mxCell>
        <mxCell id="NsLznJ0KzeJEmcW6jJ__-21" value="Spot in the table null?" style="rhombus;whiteSpace=wrap;html=1;" parent="1" vertex="1">
          <mxGeometry x="600" y="2360" width="80" height="80" as="geometry" />
        </mxCell>
        <mxCell id="NsLznJ0KzeJEmcW6jJ__-23" value="NO" style="text;html=1;align=center;verticalAlign=middle;resizable=0;points=[];autosize=1;strokeColor=none;fillColor=none;" parent="1" vertex="1">
          <mxGeometry x="725" y="2380" width="30" height="20" as="geometry" />
        </mxCell>
        <mxCell id="NsLznJ0KzeJEmcW6jJ__-25" value="YES" style="text;html=1;align=center;verticalAlign=middle;resizable=0;points=[];autosize=1;strokeColor=none;fillColor=none;" parent="1" vertex="1">
          <mxGeometry x="590" y="2460" width="40" height="20" as="geometry" />
        </mxCell>
        <mxCell id="NsLznJ0KzeJEmcW6jJ__-27" value="Write out codes:" style="text;html=1;align=center;verticalAlign=middle;resizable=0;points=[];autosize=1;strokeColor=none;fillColor=none;" parent="1" vertex="1">
          <mxGeometry x="900" y="1725" width="100" height="20" as="geometry" />
        </mxCell>
        <mxCell id="NsLznJ0KzeJEmcW6jJ__-30" value="" style="edgeStyle=orthogonalEdgeStyle;rounded=0;orthogonalLoop=1;jettySize=auto;html=1;" parent="1" source="NsLznJ0KzeJEmcW6jJ__-28" target="NsLznJ0KzeJEmcW6jJ__-29" edge="1">
          <mxGeometry relative="1" as="geometry" />
        </mxCell>
        <mxCell id="NsLznJ0KzeJEmcW6jJ__-28" value="Get the character." style="whiteSpace=wrap;html=1;" parent="1" vertex="1">
          <mxGeometry x="1080" y="2010" width="120" height="60" as="geometry" />
        </mxCell>
        <mxCell id="NsLznJ0KzeJEmcW6jJ__-34" value="" style="edgeStyle=orthogonalEdgeStyle;rounded=0;orthogonalLoop=1;jettySize=auto;html=1;" parent="1" source="NsLznJ0KzeJEmcW6jJ__-29" target="NsLznJ0KzeJEmcW6jJ__-33" edge="1">
          <mxGeometry relative="1" as="geometry" />
        </mxCell>
        <mxCell id="NsLznJ0KzeJEmcW6jJ__-29" value="Look up the code in the lookup table." style="whiteSpace=wrap;html=1;" parent="1" vertex="1">
          <mxGeometry x="1080" y="2150" width="120" height="60" as="geometry" />
        </mxCell>
        <mxCell id="NsLznJ0KzeJEmcW6jJ__-31" value="&lt;ul&gt;&lt;li&gt;Use bitwise or to set any bit of a byte.&lt;/li&gt;&lt;/ul&gt;" style="text;html=1;align=center;verticalAlign=middle;resizable=0;points=[];autosize=1;strokeColor=none;fillColor=none;" parent="1" vertex="1">
          <mxGeometry x="935" y="1745" width="250" height="40" as="geometry" />
        </mxCell>
        <mxCell id="NsLznJ0KzeJEmcW6jJ__-36" value="" style="edgeStyle=orthogonalEdgeStyle;rounded=0;orthogonalLoop=1;jettySize=auto;html=1;" parent="1" source="NsLznJ0KzeJEmcW6jJ__-33" target="NsLznJ0KzeJEmcW6jJ__-35" edge="1">
          <mxGeometry relative="1" as="geometry" />
        </mxCell>
        <mxCell id="NsLznJ0KzeJEmcW6jJ__-45" style="edgeStyle=orthogonalEdgeStyle;rounded=0;orthogonalLoop=1;jettySize=auto;html=1;entryX=0.5;entryY=0;entryDx=0;entryDy=0;" parent="1" source="NsLznJ0KzeJEmcW6jJ__-33" target="NsLznJ0KzeJEmcW6jJ__-46" edge="1">
          <mxGeometry relative="1" as="geometry">
            <mxPoint x="1110" y="2730" as="targetPoint" />
            <Array as="points">
              <mxPoint x="1030" y="2320" />
              <mxPoint x="1030" y="2720" />
              <mxPoint x="1110" y="2720" />
            </Array>
          </mxGeometry>
        </mxCell>
        <mxCell id="NsLznJ0KzeJEmcW6jJ__-33" value="Until byte is full of the code." style="whiteSpace=wrap;html=1;" parent="1" vertex="1">
          <mxGeometry x="1080" y="2290" width="120" height="60" as="geometry" />
        </mxCell>
        <mxCell id="NsLznJ0KzeJEmcW6jJ__-38" value="" style="edgeStyle=orthogonalEdgeStyle;rounded=0;orthogonalLoop=1;jettySize=auto;html=1;" parent="1" source="NsLznJ0KzeJEmcW6jJ__-35" target="NsLznJ0KzeJEmcW6jJ__-37" edge="1">
          <mxGeometry relative="1" as="geometry" />
        </mxCell>
        <mxCell id="NsLznJ0KzeJEmcW6jJ__-40" style="edgeStyle=orthogonalEdgeStyle;rounded=0;orthogonalLoop=1;jettySize=auto;html=1;" parent="1" source="NsLznJ0KzeJEmcW6jJ__-35" edge="1">
          <mxGeometry relative="1" as="geometry">
            <mxPoint x="1280" y="2460" as="targetPoint" />
          </mxGeometry>
        </mxCell>
        <mxCell id="NsLznJ0KzeJEmcW6jJ__-35" value="if 0" style="rhombus;whiteSpace=wrap;html=1;" parent="1" vertex="1">
          <mxGeometry x="1100" y="2420" width="80" height="80" as="geometry" />
        </mxCell>
        <mxCell id="NsLznJ0KzeJEmcW6jJ__-43" style="edgeStyle=orthogonalEdgeStyle;rounded=0;orthogonalLoop=1;jettySize=auto;html=1;entryX=1;entryY=0.5;entryDx=0;entryDy=0;" parent="1" source="NsLznJ0KzeJEmcW6jJ__-37" target="NsLznJ0KzeJEmcW6jJ__-33" edge="1">
          <mxGeometry relative="1" as="geometry">
            <mxPoint x="1550" y="2620" as="targetPoint" />
            <Array as="points">
              <mxPoint x="1550" y="2610" />
              <mxPoint x="1550" y="2320" />
            </Array>
          </mxGeometry>
        </mxCell>
        <mxCell id="NsLznJ0KzeJEmcW6jJ__-37" value="increment counter for&amp;nbsp; code and for 8 bits we will write out" style="whiteSpace=wrap;html=1;" parent="1" vertex="1">
          <mxGeometry x="1080" y="2590" width="120" height="60" as="geometry" />
        </mxCell>
        <mxCell id="NsLznJ0KzeJEmcW6jJ__-39" value="YES" style="text;html=1;align=center;verticalAlign=middle;resizable=0;points=[];autosize=1;strokeColor=none;fillColor=none;" parent="1" vertex="1">
          <mxGeometry x="1090" y="2530" width="40" height="20" as="geometry" />
        </mxCell>
        <mxCell id="NsLznJ0KzeJEmcW6jJ__-41" value="No" style="text;html=1;align=center;verticalAlign=middle;resizable=0;points=[];autosize=1;strokeColor=none;fillColor=none;" parent="1" vertex="1">
          <mxGeometry x="1215" y="2440" width="30" height="20" as="geometry" />
        </mxCell>
        <mxCell id="NsLznJ0KzeJEmcW6jJ__-44" style="edgeStyle=orthogonalEdgeStyle;rounded=0;orthogonalLoop=1;jettySize=auto;html=1;entryX=1;entryY=0.75;entryDx=0;entryDy=0;" parent="1" source="NsLznJ0KzeJEmcW6jJ__-42" target="NsLznJ0KzeJEmcW6jJ__-33" edge="1">
          <mxGeometry relative="1" as="geometry">
            <mxPoint x="1470" y="2360" as="targetPoint" />
            <Array as="points">
              <mxPoint x="1480" y="2460" />
              <mxPoint x="1480" y="2360" />
              <mxPoint x="1200" y="2360" />
            </Array>
          </mxGeometry>
        </mxCell>
        <mxCell id="NsLznJ0KzeJEmcW6jJ__-42" value="Set the correct bit in the byte." style="whiteSpace=wrap;html=1;" parent="1" vertex="1">
          <mxGeometry x="1280" y="2430" width="120" height="60" as="geometry" />
        </mxCell>
        <mxCell id="NsLznJ0KzeJEmcW6jJ__-54" style="edgeStyle=orthogonalEdgeStyle;rounded=0;orthogonalLoop=1;jettySize=auto;html=1;entryX=0.5;entryY=0;entryDx=0;entryDy=0;" parent="1" source="NsLznJ0KzeJEmcW6jJ__-46" target="NsLznJ0KzeJEmcW6jJ__-48" edge="1">
          <mxGeometry relative="1" as="geometry">
            <mxPoint x="1150" y="1810" as="targetPoint" />
            <Array as="points">
              <mxPoint x="1680" y="2760" />
              <mxPoint x="1680" y="1800" />
              <mxPoint x="1150" y="1800" />
              <mxPoint x="1150" y="1850" />
            </Array>
          </mxGeometry>
        </mxCell>
        <mxCell id="NsLznJ0KzeJEmcW6jJ__-46" value="Write out the byte to the outfile." style="whiteSpace=wrap;html=1;" parent="1" vertex="1">
          <mxGeometry x="1050" y="2730" width="120" height="60" as="geometry" />
        </mxCell>
        <mxCell id="NsLznJ0KzeJEmcW6jJ__-49" style="edgeStyle=orthogonalEdgeStyle;rounded=0;orthogonalLoop=1;jettySize=auto;html=1;entryX=0.5;entryY=0;entryDx=0;entryDy=0;" parent="1" source="NsLznJ0KzeJEmcW6jJ__-48" target="NsLznJ0KzeJEmcW6jJ__-28" edge="1">
          <mxGeometry relative="1" as="geometry" />
        </mxCell>
        <mxCell id="NsLznJ0KzeJEmcW6jJ__-51" style="edgeStyle=orthogonalEdgeStyle;rounded=0;orthogonalLoop=1;jettySize=auto;html=1;entryX=0;entryY=0.5;entryDx=0;entryDy=0;" parent="1" source="NsLznJ0KzeJEmcW6jJ__-48" target="NsLznJ0KzeJEmcW6jJ__-53" edge="1">
          <mxGeometry relative="1" as="geometry">
            <mxPoint x="1380" y="1890" as="targetPoint" />
          </mxGeometry>
        </mxCell>
        <mxCell id="NsLznJ0KzeJEmcW6jJ__-48" value="Finished reading the file?" style="rhombus;whiteSpace=wrap;html=1;" parent="1" vertex="1">
          <mxGeometry x="1100" y="1850" width="80" height="80" as="geometry" />
        </mxCell>
        <mxCell id="NsLznJ0KzeJEmcW6jJ__-50" value="NO" style="text;html=1;align=center;verticalAlign=middle;resizable=0;points=[];autosize=1;strokeColor=none;fillColor=none;" parent="1" vertex="1">
          <mxGeometry x="1105" y="1960" width="30" height="20" as="geometry" />
        </mxCell>
        <mxCell id="NsLznJ0KzeJEmcW6jJ__-52" value="YES" style="text;html=1;align=center;verticalAlign=middle;resizable=0;points=[];autosize=1;strokeColor=none;fillColor=none;" parent="1" vertex="1">
          <mxGeometry x="1230" y="1850" width="40" height="20" as="geometry" />
        </mxCell>
        <mxCell id="NsLznJ0KzeJEmcW6jJ__-53" value="End program" style="ellipse;whiteSpace=wrap;html=1;" parent="1" vertex="1">
          <mxGeometry x="1390" y="1860" width="120" height="60" as="geometry" />
        </mxCell>
        <mxCell id="RyAK3cPyoWdKP6_QAYW--2" value="&lt;b&gt;hdecode:&lt;/b&gt;" style="text;html=1;align=center;verticalAlign=middle;resizable=0;points=[];autosize=1;strokeColor=none;fillColor=none;" parent="1" vertex="1">
          <mxGeometry x="1560" y="70" width="70" height="20" as="geometry" />
        </mxCell>
        <mxCell id="RyAK3cPyoWdKP6_QAYW--3" value="" style="edgeStyle=orthogonalEdgeStyle;rounded=0;orthogonalLoop=1;jettySize=auto;html=1;" parent="1" source="RyAK3cPyoWdKP6_QAYW--5" target="RyAK3cPyoWdKP6_QAYW--6" edge="1">
          <mxGeometry relative="1" as="geometry" />
        </mxCell>
        <mxCell id="RyAK3cPyoWdKP6_QAYW--4" value="" style="edgeStyle=orthogonalEdgeStyle;rounded=0;orthogonalLoop=1;jettySize=auto;html=1;" parent="1" source="RyAK3cPyoWdKP6_QAYW--5" target="RyAK3cPyoWdKP6_QAYW--8" edge="1">
          <mxGeometry relative="1" as="geometry" />
        </mxCell>
        <mxCell id="RyAK3cPyoWdKP6_QAYW--5" value="Input file given?" style="rhombus;whiteSpace=wrap;html=1;" parent="1" vertex="1">
          <mxGeometry x="1685" y="50" width="80" height="80" as="geometry" />
        </mxCell>
        <mxCell id="RyAK3cPyoWdKP6_QAYW--11" style="edgeStyle=orthogonalEdgeStyle;rounded=0;orthogonalLoop=1;jettySize=auto;html=1;" parent="1" source="RyAK3cPyoWdKP6_QAYW--6" edge="1">
          <mxGeometry relative="1" as="geometry">
            <mxPoint x="1720" y="330" as="targetPoint" />
            <Array as="points">
              <mxPoint x="1885" y="290" />
              <mxPoint x="1885" y="290" />
            </Array>
          </mxGeometry>
        </mxCell>
        <mxCell id="RyAK3cPyoWdKP6_QAYW--6" value="Take input from std in." style="whiteSpace=wrap;html=1;" parent="1" vertex="1">
          <mxGeometry x="1825" y="60" width="120" height="60" as="geometry" />
        </mxCell>
        <mxCell id="RyAK3cPyoWdKP6_QAYW--7" value="" style="edgeStyle=orthogonalEdgeStyle;rounded=0;orthogonalLoop=1;jettySize=auto;html=1;" parent="1" source="RyAK3cPyoWdKP6_QAYW--8" edge="1">
          <mxGeometry relative="1" as="geometry">
            <mxPoint x="1725" y="360" as="targetPoint" />
          </mxGeometry>
        </mxCell>
        <mxCell id="RyAK3cPyoWdKP6_QAYW--8" value="Open the input file." style="whiteSpace=wrap;html=1;" parent="1" vertex="1">
          <mxGeometry x="1665" y="220" width="120" height="60" as="geometry" />
        </mxCell>
        <mxCell id="RyAK3cPyoWdKP6_QAYW--9" value="NO" style="text;html=1;align=center;verticalAlign=middle;resizable=0;points=[];autosize=1;strokeColor=none;fillColor=none;" parent="1" vertex="1">
          <mxGeometry x="1770" y="70" width="30" height="20" as="geometry" />
        </mxCell>
        <mxCell id="RyAK3cPyoWdKP6_QAYW--10" value="YES" style="text;html=1;align=center;verticalAlign=middle;resizable=0;points=[];autosize=1;strokeColor=none;fillColor=none;" parent="1" vertex="1">
          <mxGeometry x="1685" y="160" width="40" height="20" as="geometry" />
        </mxCell>
        <mxCell id="RyAK3cPyoWdKP6_QAYW--14" value="" style="edgeStyle=orthogonalEdgeStyle;rounded=0;orthogonalLoop=1;jettySize=auto;html=1;entryX=0.5;entryY=0;entryDx=0;entryDy=0;" parent="1" source="RyAK3cPyoWdKP6_QAYW--12" target="RyAK3cPyoWdKP6_QAYW--20" edge="1">
          <mxGeometry relative="1" as="geometry">
            <mxPoint x="1725" y="500" as="targetPoint" />
          </mxGeometry>
        </mxCell>
        <mxCell id="RyAK3cPyoWdKP6_QAYW--12" value="read and store the first byte, number of unique characters." style="whiteSpace=wrap;html=1;" parent="1" vertex="1">
          <mxGeometry x="1665" y="360" width="120" height="60" as="geometry" />
        </mxCell>
        <mxCell id="RyAK3cPyoWdKP6_QAYW--16" value="" style="edgeStyle=orthogonalEdgeStyle;rounded=0;orthogonalLoop=1;jettySize=auto;html=1;" parent="1" target="RyAK3cPyoWdKP6_QAYW--15" edge="1">
          <mxGeometry relative="1" as="geometry">
            <mxPoint x="1725" y="560" as="sourcePoint" />
          </mxGeometry>
        </mxCell>
        <mxCell id="RyAK3cPyoWdKP6_QAYW--26" value="" style="edgeStyle=orthogonalEdgeStyle;rounded=0;orthogonalLoop=1;jettySize=auto;html=1;" parent="1" source="RyAK3cPyoWdKP6_QAYW--15" target="RyAK3cPyoWdKP6_QAYW--25" edge="1">
          <mxGeometry relative="1" as="geometry" />
        </mxCell>
        <mxCell id="RyAK3cPyoWdKP6_QAYW--15" value="Get the letter and store it in the lookup table. store freq with the letter." style="whiteSpace=wrap;html=1;" parent="1" vertex="1">
          <mxGeometry x="1665" y="690" width="120" height="60" as="geometry" />
        </mxCell>
        <mxCell id="RyAK3cPyoWdKP6_QAYW--23" style="edgeStyle=orthogonalEdgeStyle;rounded=0;orthogonalLoop=1;jettySize=auto;html=1;" parent="1" source="RyAK3cPyoWdKP6_QAYW--20" edge="1">
          <mxGeometry relative="1" as="geometry">
            <mxPoint x="1700" y="880" as="targetPoint" />
            <Array as="points">
              <mxPoint x="1610" y="515" />
            </Array>
          </mxGeometry>
        </mxCell>
        <mxCell id="RyAK3cPyoWdKP6_QAYW--20" value="counter == num unique chars?" style="rhombus;whiteSpace=wrap;html=1;" parent="1" vertex="1">
          <mxGeometry x="1670" y="470" width="110" height="90" as="geometry" />
        </mxCell>
        <mxCell id="RyAK3cPyoWdKP6_QAYW--22" value="NO&lt;br&gt;" style="text;html=1;align=center;verticalAlign=middle;resizable=0;points=[];autosize=1;strokeColor=none;fillColor=none;" parent="1" vertex="1">
          <mxGeometry x="1725" y="565" width="30" height="20" as="geometry" />
        </mxCell>
        <mxCell id="RyAK3cPyoWdKP6_QAYW--29" value="" style="edgeStyle=orthogonalEdgeStyle;rounded=0;orthogonalLoop=1;jettySize=auto;html=1;" parent="1" source="RyAK3cPyoWdKP6_QAYW--24" target="RyAK3cPyoWdKP6_QAYW--30" edge="1">
          <mxGeometry relative="1" as="geometry">
            <mxPoint x="2220" y="48" as="targetPoint" />
            <Array as="points">
              <mxPoint x="2080" y="880" />
              <mxPoint x="2080" y="48" />
              <mxPoint x="2275" y="48" />
            </Array>
          </mxGeometry>
        </mxCell>
        <mxCell id="RyAK3cPyoWdKP6_QAYW--24" value="Use prior code to generate the tree." style="whiteSpace=wrap;html=1;" parent="1" vertex="1">
          <mxGeometry x="1700" y="850" width="120" height="60" as="geometry" />
        </mxCell>
        <mxCell id="RyAK3cPyoWdKP6_QAYW--27" style="edgeStyle=orthogonalEdgeStyle;rounded=0;orthogonalLoop=1;jettySize=auto;html=1;entryX=1;entryY=0.5;entryDx=0;entryDy=0;" parent="1" source="RyAK3cPyoWdKP6_QAYW--25" target="RyAK3cPyoWdKP6_QAYW--20" edge="1">
          <mxGeometry relative="1" as="geometry">
            <mxPoint x="1920" y="400" as="targetPoint" />
            <Array as="points">
              <mxPoint x="1925" y="520" />
              <mxPoint x="1920" y="520" />
              <mxPoint x="1920" y="515" />
            </Array>
          </mxGeometry>
        </mxCell>
        <mxCell id="RyAK3cPyoWdKP6_QAYW--25" value="add the freq to the counter of the total chars in the file." style="whiteSpace=wrap;html=1;" parent="1" vertex="1">
          <mxGeometry x="1865" y="690" width="120" height="60" as="geometry" />
        </mxCell>
        <mxCell id="VRRa4E4mGJXkscN4UH26-1" style="edgeStyle=orthogonalEdgeStyle;rounded=0;orthogonalLoop=1;jettySize=auto;html=1;" parent="1" source="RyAK3cPyoWdKP6_QAYW--30" target="RyAK3cPyoWdKP6_QAYW--61" edge="1">
          <mxGeometry relative="1" as="geometry" />
        </mxCell>
        <mxCell id="RyAK3cPyoWdKP6_QAYW--30" value="Write file Function:" style="text;html=1;align=center;verticalAlign=middle;resizable=0;points=[];autosize=1;strokeColor=none;fillColor=none;" parent="1" vertex="1">
          <mxGeometry x="2220" y="-110" width="110" height="20" as="geometry" />
        </mxCell>
        <mxCell id="RyAK3cPyoWdKP6_QAYW--35" value="" style="edgeStyle=orthogonalEdgeStyle;rounded=0;orthogonalLoop=1;jettySize=auto;html=1;" parent="1" source="RyAK3cPyoWdKP6_QAYW--31" target="RyAK3cPyoWdKP6_QAYW--34" edge="1">
          <mxGeometry relative="1" as="geometry" />
        </mxCell>
        <mxCell id="RyAK3cPyoWdKP6_QAYW--31" value="read a byte from the encoded file." style="whiteSpace=wrap;html=1;" parent="1" vertex="1">
          <mxGeometry x="2350" y="50" width="120" height="60" as="geometry" />
        </mxCell>
        <mxCell id="RyAK3cPyoWdKP6_QAYW--37" value="" style="edgeStyle=orthogonalEdgeStyle;rounded=0;orthogonalLoop=1;jettySize=auto;html=1;" parent="1" source="RyAK3cPyoWdKP6_QAYW--34" edge="1">
          <mxGeometry relative="1" as="geometry">
            <mxPoint x="2410" y="320" as="targetPoint" />
          </mxGeometry>
        </mxCell>
        <mxCell id="RyAK3cPyoWdKP6_QAYW--34" value="bitwise AND w/ 1 at the byte starting from bit 8 (MSB)" style="whiteSpace=wrap;html=1;" parent="1" vertex="1">
          <mxGeometry x="2350" y="180" width="120" height="60" as="geometry" />
        </mxCell>
        <mxCell id="RyAK3cPyoWdKP6_QAYW--39" style="edgeStyle=orthogonalEdgeStyle;rounded=0;orthogonalLoop=1;jettySize=auto;html=1;" parent="1" source="RyAK3cPyoWdKP6_QAYW--38" edge="1">
          <mxGeometry relative="1" as="geometry">
            <mxPoint x="2530" y="420" as="targetPoint" />
          </mxGeometry>
        </mxCell>
        <mxCell id="RyAK3cPyoWdKP6_QAYW--42" style="edgeStyle=orthogonalEdgeStyle;rounded=0;orthogonalLoop=1;jettySize=auto;html=1;" parent="1" source="RyAK3cPyoWdKP6_QAYW--38" edge="1">
          <mxGeometry relative="1" as="geometry">
            <mxPoint x="2250" y="430" as="targetPoint" />
          </mxGeometry>
        </mxCell>
        <mxCell id="RyAK3cPyoWdKP6_QAYW--38" value="zero or one?" style="rhombus;whiteSpace=wrap;html=1;" parent="1" vertex="1">
          <mxGeometry x="2370" y="320" width="80" height="80" as="geometry" />
        </mxCell>
        <mxCell id="RyAK3cPyoWdKP6_QAYW--47" style="edgeStyle=orthogonalEdgeStyle;rounded=0;orthogonalLoop=1;jettySize=auto;html=1;entryX=1;entryY=0.5;entryDx=0;entryDy=0;" parent="1" source="RyAK3cPyoWdKP6_QAYW--40" target="RyAK3cPyoWdKP6_QAYW--46" edge="1">
          <mxGeometry relative="1" as="geometry">
            <mxPoint x="2530" y="600" as="targetPoint" />
            <Array as="points">
              <mxPoint x="2530" y="570" />
            </Array>
          </mxGeometry>
        </mxCell>
        <mxCell id="RyAK3cPyoWdKP6_QAYW--40" value="root = root.right" style="whiteSpace=wrap;html=1;" parent="1" vertex="1">
          <mxGeometry x="2470" y="420" width="120" height="60" as="geometry" />
        </mxCell>
        <mxCell id="RyAK3cPyoWdKP6_QAYW--41" value="ONE" style="text;html=1;align=center;verticalAlign=middle;resizable=0;points=[];autosize=1;strokeColor=none;fillColor=none;" parent="1" vertex="1">
          <mxGeometry x="2460" y="340" width="40" height="20" as="geometry" />
        </mxCell>
        <mxCell id="RyAK3cPyoWdKP6_QAYW--48" style="edgeStyle=orthogonalEdgeStyle;rounded=0;orthogonalLoop=1;jettySize=auto;html=1;entryX=0;entryY=0.5;entryDx=0;entryDy=0;" parent="1" source="RyAK3cPyoWdKP6_QAYW--43" target="RyAK3cPyoWdKP6_QAYW--46" edge="1">
          <mxGeometry relative="1" as="geometry">
            <mxPoint x="2250" y="620" as="targetPoint" />
            <Array as="points">
              <mxPoint x="2250" y="570" />
            </Array>
          </mxGeometry>
        </mxCell>
        <mxCell id="RyAK3cPyoWdKP6_QAYW--43" value="root = root.left" style="whiteSpace=wrap;html=1;" parent="1" vertex="1">
          <mxGeometry x="2190" y="430" width="120" height="60" as="geometry" />
        </mxCell>
        <mxCell id="RyAK3cPyoWdKP6_QAYW--44" value="ZERO" style="text;html=1;align=center;verticalAlign=middle;resizable=0;points=[];autosize=1;strokeColor=none;fillColor=none;" parent="1" vertex="1">
          <mxGeometry x="2285" y="340" width="50" height="20" as="geometry" />
        </mxCell>
        <mxCell id="RyAK3cPyoWdKP6_QAYW--52" style="edgeStyle=orthogonalEdgeStyle;rounded=0;orthogonalLoop=1;jettySize=auto;html=1;" parent="1" source="RyAK3cPyoWdKP6_QAYW--45" edge="1">
          <mxGeometry relative="1" as="geometry">
            <mxPoint x="2350" y="200" as="targetPoint" />
            <Array as="points">
              <mxPoint x="2160" y="770" />
              <mxPoint x="2160" y="200" />
              <mxPoint x="2350" y="200" />
            </Array>
          </mxGeometry>
        </mxCell>
        <mxCell id="RyAK3cPyoWdKP6_QAYW--55" value="" style="edgeStyle=orthogonalEdgeStyle;rounded=0;orthogonalLoop=1;jettySize=auto;html=1;" parent="1" source="RyAK3cPyoWdKP6_QAYW--45" target="RyAK3cPyoWdKP6_QAYW--54" edge="1">
          <mxGeometry relative="1" as="geometry" />
        </mxCell>
        <mxCell id="RyAK3cPyoWdKP6_QAYW--45" value="have we reached a leaf?" style="rhombus;whiteSpace=wrap;html=1;" parent="1" vertex="1">
          <mxGeometry x="2280" y="710" width="160" height="120" as="geometry" />
        </mxCell>
        <mxCell id="RyAK3cPyoWdKP6_QAYW--49" style="edgeStyle=orthogonalEdgeStyle;rounded=0;orthogonalLoop=1;jettySize=auto;html=1;entryX=0.5;entryY=0;entryDx=0;entryDy=0;" parent="1" source="RyAK3cPyoWdKP6_QAYW--46" target="RyAK3cPyoWdKP6_QAYW--45" edge="1">
          <mxGeometry relative="1" as="geometry" />
        </mxCell>
        <mxCell id="RyAK3cPyoWdKP6_QAYW--46" value="increment bit counter" style="whiteSpace=wrap;html=1;" parent="1" vertex="1">
          <mxGeometry x="2335" y="540" width="120" height="60" as="geometry" />
        </mxCell>
        <mxCell id="RyAK3cPyoWdKP6_QAYW--53" value="NO" style="text;html=1;align=center;verticalAlign=middle;resizable=0;points=[];autosize=1;strokeColor=none;fillColor=none;" parent="1" vertex="1">
          <mxGeometry x="2205" y="750" width="30" height="20" as="geometry" />
        </mxCell>
        <mxCell id="RyAK3cPyoWdKP6_QAYW--58" value="" style="edgeStyle=orthogonalEdgeStyle;rounded=0;orthogonalLoop=1;jettySize=auto;html=1;" parent="1" source="RyAK3cPyoWdKP6_QAYW--54" target="RyAK3cPyoWdKP6_QAYW--57" edge="1">
          <mxGeometry relative="1" as="geometry" />
        </mxCell>
        <mxCell id="RyAK3cPyoWdKP6_QAYW--54" value="Write out the byte which is at the leaf and reset root." style="whiteSpace=wrap;html=1;" parent="1" vertex="1">
          <mxGeometry x="2540" y="740" width="120" height="60" as="geometry" />
        </mxCell>
        <mxCell id="RyAK3cPyoWdKP6_QAYW--56" value="YES" style="text;html=1;align=center;verticalAlign=middle;resizable=0;points=[];autosize=1;strokeColor=none;fillColor=none;" parent="1" vertex="1">
          <mxGeometry x="2460" y="750" width="40" height="20" as="geometry" />
        </mxCell>
        <mxCell id="RyAK3cPyoWdKP6_QAYW--67" style="edgeStyle=orthogonalEdgeStyle;rounded=0;orthogonalLoop=1;jettySize=auto;html=1;entryX=0.5;entryY=0;entryDx=0;entryDy=0;" parent="1" source="RyAK3cPyoWdKP6_QAYW--57" target="RyAK3cPyoWdKP6_QAYW--61" edge="1">
          <mxGeometry relative="1" as="geometry">
            <mxPoint x="2370" y="-290" as="targetPoint" />
            <Array as="points">
              <mxPoint x="2800" y="-290" />
              <mxPoint x="2408" y="-290" />
            </Array>
          </mxGeometry>
        </mxCell>
        <mxCell id="RyAK3cPyoWdKP6_QAYW--57" value="increment counter for number of chars written" style="whiteSpace=wrap;html=1;" parent="1" vertex="1">
          <mxGeometry x="2740" y="740" width="120" height="60" as="geometry" />
        </mxCell>
        <mxCell id="RyAK3cPyoWdKP6_QAYW--62" style="edgeStyle=orthogonalEdgeStyle;rounded=0;orthogonalLoop=1;jettySize=auto;html=1;entryX=0.5;entryY=0;entryDx=0;entryDy=0;" parent="1" source="RyAK3cPyoWdKP6_QAYW--61" target="RyAK3cPyoWdKP6_QAYW--31" edge="1">
          <mxGeometry relative="1" as="geometry" />
        </mxCell>
        <mxCell id="RyAK3cPyoWdKP6_QAYW--64" style="edgeStyle=orthogonalEdgeStyle;rounded=0;orthogonalLoop=1;jettySize=auto;html=1;" parent="1" source="RyAK3cPyoWdKP6_QAYW--61" edge="1">
          <mxGeometry relative="1" as="geometry">
            <mxPoint x="2650" y="-105" as="targetPoint" />
          </mxGeometry>
        </mxCell>
        <mxCell id="RyAK3cPyoWdKP6_QAYW--61" value="number of chars written == total number of chars" style="rhombus;whiteSpace=wrap;html=1;" parent="1" vertex="1">
          <mxGeometry x="2350" y="-180" width="115" height="150" as="geometry" />
        </mxCell>
        <mxCell id="RyAK3cPyoWdKP6_QAYW--63" value="NO" style="text;html=1;align=center;verticalAlign=middle;resizable=0;points=[];autosize=1;strokeColor=none;fillColor=none;" parent="1" vertex="1">
          <mxGeometry x="2365" y="-20" width="30" height="20" as="geometry" />
        </mxCell>
        <mxCell id="RyAK3cPyoWdKP6_QAYW--65" value="Yes" style="text;html=1;align=center;verticalAlign=middle;resizable=0;points=[];autosize=1;strokeColor=none;fillColor=none;" parent="1" vertex="1">
          <mxGeometry x="2530" y="-130" width="40" height="20" as="geometry" />
        </mxCell>
        <mxCell id="RyAK3cPyoWdKP6_QAYW--66" value="FREE, CLOSE AND END PROGRAM." style="ellipse;whiteSpace=wrap;html=1;" parent="1" vertex="1">
          <mxGeometry x="2650" y="-135" width="120" height="60" as="geometry" />
        </mxCell>
      </root>
    </mxGraphModel>
  </diagram>
</mxfile>
